<?xml version="1.0" encoding="UTF-8"?>
<svg xmlns="http://www.w3.org/2000/svg" xmlns:xlink="http://www.w3.org/1999/xlink" width="190.0266pt" height="113.0121pt" viewBox="0 0 190.0266 113.0121" version="1.2">
<g id="surface1">
<path style=" stroke:none;fill-rule:nonzero;fill:rgb(7.058716%,1.176453%,46.665955%);fill-opacity:1;" d="M 161.210938 63.164062 C 161.210938 64.660156 160.402344 65.96875 159.199219 66.671875 C 158.597656 67.023438 157.898438 67.222656 157.152344 67.222656 C 155.65625 67.222656 154.347656 66.414062 153.644531 65.210938 C 153.292969 64.609375 153.09375 63.910156 153.09375 63.164062 C 153.09375 61.667969 153.902344 60.359375 155.105469 59.65625 C 155.707031 59.304688 156.40625 59.105469 157.152344 59.105469 C 158.648438 59.105469 159.957031 59.914062 160.660156 61.117188 C 161.011719 61.71875 161.210938 62.417969 161.210938 63.164062 M 160.027344 63.164062 C 160.027344 62.636719 159.886719 62.140625 159.636719 61.714844 C 159.136719 60.863281 158.210938 60.289062 157.152344 60.289062 C 156.625 60.289062 156.128906 60.429688 155.703125 60.679688 C 154.851562 61.179688 154.277344 62.105469 154.277344 63.164062 C 154.277344 63.691406 154.417969 64.1875 154.667969 64.609375 C 155.167969 65.464844 156.09375 66.039062 157.152344 66.039062 C 157.679688 66.039062 158.175781 65.894531 158.601562 65.648438 C 159.453125 65.148438 160.027344 64.222656 160.027344 63.164062 "/>
<path style=" stroke:none;fill-rule:nonzero;fill:rgb(7.058716%,1.176453%,46.665955%);fill-opacity:1;" d="M 119.085938 46.464844 C 118.886719 46.207031 118.929688 45.835938 119.1875 45.636719 C 119.445312 45.433594 119.820312 45.480469 120.019531 45.738281 C 129.339844 57.679688 129.339844 69.109375 120 79.824219 C 119.785156 80.070312 119.410156 80.097656 119.164062 79.882812 C 118.917969 79.667969 118.890625 79.292969 119.105469 79.046875 C 128.066406 68.769531 128.066406 57.972656 119.085938 46.464844 "/>
<path style=" stroke:none;fill-rule:nonzero;fill:rgb(7.058716%,1.176453%,46.665955%);fill-opacity:1;" d="M 119.621094 46.691406 C 119.296875 46.730469 119.003906 46.496094 118.964844 46.171875 C 118.925781 45.847656 119.160156 45.550781 119.484375 45.511719 C 135.523438 43.621094 147.171875 49.449219 154.308594 62.953125 C 154.460938 63.242188 154.351562 63.601562 154.0625 63.753906 C 153.773438 63.90625 153.414062 63.796875 153.261719 63.507812 C 146.359375 50.441406 135.1875 44.851562 119.621094 46.691406 "/>
<path style=" stroke:none;fill-rule:nonzero;fill:rgb(7.058716%,1.176453%,46.665955%);fill-opacity:1;" d="M 119.429688 80.015625 C 119.109375 79.945312 118.90625 79.628906 118.972656 79.308594 C 119.042969 78.992188 119.359375 78.785156 119.675781 78.855469 C 135.039062 82.152344 146.179688 76.878906 153.257812 62.960938 C 153.40625 62.667969 153.761719 62.550781 154.054688 62.699219 C 154.34375 62.847656 154.460938 63.207031 154.3125 63.496094 C 146.992188 77.894531 135.3125 83.425781 119.429688 80.015625 "/>
<path style=" stroke:none;fill-rule:nonzero;fill:rgb(7.058716%,1.176453%,46.665955%);fill-opacity:1;" d="M 160.617188 63.878906 C 160.289062 63.878906 160.023438 63.613281 160.023438 63.285156 C 160.023438 62.957031 160.289062 62.695312 160.617188 62.695312 L 167.648438 62.695312 C 167.976562 62.695312 168.242188 62.957031 168.242188 63.285156 C 168.242188 63.613281 167.976562 63.878906 167.648438 63.878906 Z M 160.617188 63.878906 "/>
<path style=" stroke:none;fill-rule:nonzero;fill:rgb(7.058716%,1.176453%,46.665955%);fill-opacity:1;" d="M 108.253906 55.175781 C 107.929688 55.175781 107.664062 54.910156 107.664062 54.582031 C 107.664062 54.253906 107.929688 53.992188 108.253906 53.992188 L 124.621094 53.992188 C 124.945312 53.992188 125.210938 54.253906 125.210938 54.582031 C 125.210938 54.910156 124.945312 55.175781 124.621094 55.175781 Z M 108.253906 55.175781 "/>
<path style=" stroke:none;fill-rule:nonzero;fill:rgb(7.058716%,1.176453%,46.665955%);fill-opacity:1;" d="M 107.617188 72.40625 C 107.289062 72.40625 107.027344 72.140625 107.027344 71.8125 C 107.027344 71.488281 107.289062 71.222656 107.617188 71.222656 L 123.867188 71.222656 C 124.195312 71.222656 124.460938 71.488281 124.460938 71.8125 C 124.460938 72.140625 124.195312 72.40625 123.867188 72.40625 Z M 107.617188 72.40625 "/>
<path style=" stroke:none;fill-rule:nonzero;fill:rgb(7.058716%,1.176453%,46.665955%);fill-opacity:1;" d="M 39.476562 22.28125 C 39.46875 21.957031 39.730469 21.6875 40.058594 21.679688 C 40.386719 21.675781 40.65625 21.9375 40.660156 22.265625 C 40.851562 33.996094 40.851562 45.113281 40.660156 55.617188 C 40.652344 55.945312 40.382812 56.203125 40.058594 56.199219 C 39.730469 56.191406 39.46875 55.921875 39.476562 55.59375 C 39.664062 45.105469 39.664062 34 39.476562 22.28125 "/>
<path style=" stroke:none;fill-rule:nonzero;fill:rgb(7.058716%,1.176453%,46.665955%);fill-opacity:1;" d="M 40.082031 22.867188 C 39.753906 22.871094 39.484375 22.613281 39.476562 22.285156 C 39.46875 21.960938 39.726562 21.6875 40.054688 21.679688 C 61.027344 21.21875 72.714844 27.066406 74.882812 39.296875 C 74.941406 39.621094 74.726562 39.925781 74.402344 39.984375 C 74.082031 40.042969 73.773438 39.828125 73.714844 39.503906 C 71.671875 27.984375 60.539062 22.414062 40.082031 22.867188 "/>
<path style=" stroke:none;fill-rule:nonzero;fill:rgb(7.058716%,1.176453%,46.665955%);fill-opacity:1;" d="M 40.015625 56.195312 C 39.691406 56.167969 39.449219 55.878906 39.476562 55.554688 C 39.507812 55.226562 39.792969 54.988281 40.121094 55.015625 C 59.785156 56.75 70.90625 51.488281 73.722656 39.265625 C 73.796875 38.949219 74.113281 38.75 74.433594 38.824219 C 74.75 38.898438 74.949219 39.214844 74.878906 39.535156 C 71.902344 52.4375 60.203125 57.976562 40.015625 56.195312 "/>
<path style=" stroke:none;fill-rule:nonzero;fill:rgb(7.058716%,1.176453%,46.665955%);fill-opacity:1;" d="M 81.230469 40.007812 C 80.902344 40.007812 80.636719 39.742188 80.636719 39.414062 C 80.636719 39.085938 80.902344 38.820312 81.230469 38.820312 L 88.164062 38.820312 C 88.488281 38.820312 88.753906 39.085938 88.753906 39.414062 C 88.753906 39.742188 88.488281 40.007812 88.164062 40.007812 Z M 81.230469 40.007812 "/>
<path style=" stroke:none;fill-rule:nonzero;fill:rgb(7.058716%,1.176453%,46.665955%);fill-opacity:1;" d="M 28.769531 31.347656 C 28.441406 31.347656 28.175781 31.082031 28.175781 30.753906 C 28.175781 30.425781 28.441406 30.160156 28.769531 30.160156 L 40.210938 30.160156 C 40.535156 30.160156 40.800781 30.425781 40.800781 30.753906 C 40.800781 31.082031 40.535156 31.347656 40.210938 31.347656 Z M 28.769531 31.347656 "/>
<path style=" stroke:none;fill-rule:nonzero;fill:rgb(7.058716%,1.176453%,46.665955%);fill-opacity:1;" d="M 28.132812 48.578125 C 27.804688 48.578125 27.539062 48.3125 27.539062 47.984375 C 27.539062 47.65625 27.804688 47.394531 28.132812 47.394531 L 40.171875 47.394531 C 40.5 47.394531 40.765625 47.65625 40.765625 47.984375 C 40.765625 48.3125 40.5 48.578125 40.171875 48.578125 Z M 28.132812 48.578125 "/>
<path style=" stroke:none;fill-rule:nonzero;fill:rgb(7.058716%,1.176453%,46.665955%);fill-opacity:1;" d="M 81.824219 39.535156 C 81.824219 41.03125 81.015625 42.339844 79.808594 43.042969 C 79.207031 43.394531 78.511719 43.59375 77.765625 43.59375 C 76.269531 43.59375 74.960938 42.785156 74.257812 41.582031 C 73.90625 40.980469 73.703125 40.28125 73.703125 39.535156 C 73.703125 38.039062 74.515625 36.730469 75.71875 36.027344 C 76.320312 35.675781 77.019531 35.476562 77.765625 35.476562 C 79.261719 35.476562 80.566406 36.285156 81.273438 37.488281 C 81.621094 38.089844 81.824219 38.789062 81.824219 39.535156 M 80.640625 39.535156 C 80.640625 39.007812 80.496094 38.511719 80.25 38.085938 C 79.75 37.234375 78.824219 36.660156 77.765625 36.660156 C 77.238281 36.660156 76.742188 36.800781 76.316406 37.050781 C 75.464844 37.550781 74.890625 38.476562 74.890625 39.535156 C 74.890625 40.0625 75.03125 40.558594 75.28125 40.984375 C 75.777344 41.835938 76.703125 42.410156 77.765625 42.410156 C 78.292969 42.410156 78.785156 42.269531 79.210938 42.019531 C 80.066406 41.519531 80.640625 40.59375 80.640625 39.535156 "/>
<path style=" stroke:none;fill-rule:nonzero;fill:rgb(7.058716%,1.176453%,46.665955%);fill-opacity:1;" d="M 39.476562 74.769531 C 39.46875 74.441406 39.730469 74.171875 40.058594 74.167969 C 40.386719 74.160156 40.65625 74.421875 40.660156 74.75 C 40.851562 86.480469 40.851562 97.597656 40.660156 108.101562 C 40.652344 108.429688 40.382812 108.691406 40.058594 108.683594 C 39.730469 108.679688 39.46875 108.40625 39.476562 108.082031 C 39.664062 97.589844 39.664062 86.488281 39.476562 74.769531 "/>
<path style=" stroke:none;fill-rule:nonzero;fill:rgb(7.058716%,1.176453%,46.665955%);fill-opacity:1;" d="M 40.082031 75.351562 C 39.753906 75.359375 39.484375 75.097656 39.476562 74.773438 C 39.46875 74.445312 39.726562 74.171875 40.054688 74.167969 C 61.027344 73.703125 72.714844 79.550781 74.882812 91.78125 C 74.941406 92.105469 74.726562 92.414062 74.402344 92.46875 C 74.082031 92.527344 73.773438 92.3125 73.714844 91.988281 C 71.671875 80.46875 60.539062 74.898438 40.082031 75.351562 "/>
<path style=" stroke:none;fill-rule:nonzero;fill:rgb(7.058716%,1.176453%,46.665955%);fill-opacity:1;" d="M 40.015625 108.683594 C 39.691406 108.652344 39.449219 108.367188 39.476562 108.039062 C 39.507812 107.714844 39.792969 107.472656 40.121094 107.5 C 59.785156 109.238281 70.90625 103.972656 73.722656 91.753906 C 73.796875 91.433594 74.113281 91.234375 74.433594 91.308594 C 74.75 91.382812 74.949219 91.699219 74.878906 92.019531 C 71.902344 104.925781 60.203125 110.464844 40.015625 108.683594 "/>
<path style=" stroke:none;fill-rule:nonzero;fill:rgb(7.058716%,1.176453%,46.665955%);fill-opacity:1;" d="M 81.230469 92.492188 C 80.902344 92.492188 80.636719 92.226562 80.636719 91.898438 C 80.636719 91.574219 80.902344 91.308594 81.230469 91.308594 L 88.164062 91.308594 C 88.488281 91.308594 88.753906 91.574219 88.753906 91.898438 C 88.753906 92.226562 88.488281 92.492188 88.164062 92.492188 Z M 81.230469 92.492188 "/>
<path style=" stroke:none;fill-rule:nonzero;fill:rgb(7.058716%,1.176453%,46.665955%);fill-opacity:1;" d="M 28.769531 83.832031 C 28.441406 83.832031 28.175781 83.566406 28.175781 83.238281 C 28.175781 82.914062 28.441406 82.648438 28.769531 82.648438 L 40.210938 82.648438 C 40.535156 82.648438 40.800781 82.914062 40.800781 83.238281 C 40.800781 83.566406 40.535156 83.832031 40.210938 83.832031 Z M 28.769531 83.832031 "/>
<path style=" stroke:none;fill-rule:nonzero;fill:rgb(7.058716%,1.176453%,46.665955%);fill-opacity:1;" d="M 28.132812 101.0625 C 27.804688 101.0625 27.539062 100.796875 27.539062 100.472656 C 27.539062 100.144531 27.804688 99.878906 28.132812 99.878906 L 40.171875 99.878906 C 40.5 99.878906 40.765625 100.144531 40.765625 100.472656 C 40.765625 100.796875 40.5 101.0625 40.171875 101.0625 Z M 28.132812 101.0625 "/>
<path style=" stroke:none;fill-rule:nonzero;fill:rgb(7.058716%,1.176453%,46.665955%);fill-opacity:1;" d="M 81.824219 92.019531 C 81.824219 93.515625 81.015625 94.824219 79.808594 95.527344 C 79.207031 95.878906 78.511719 96.082031 77.765625 96.082031 C 76.269531 96.082031 74.960938 95.269531 74.257812 94.066406 C 73.90625 93.464844 73.703125 92.765625 73.703125 92.019531 C 73.703125 90.523438 74.515625 89.21875 75.71875 88.511719 C 76.320312 88.164062 77.019531 87.960938 77.765625 87.960938 C 79.261719 87.960938 80.566406 88.769531 81.273438 89.976562 C 81.621094 90.574219 81.824219 91.273438 81.824219 92.019531 M 80.640625 92.019531 C 80.640625 91.492188 80.496094 91 80.25 90.574219 C 79.75 89.71875 78.824219 89.144531 77.765625 89.144531 C 77.238281 89.144531 76.742188 89.289062 76.316406 89.535156 C 75.464844 90.035156 74.890625 90.960938 74.890625 92.019531 C 74.890625 92.546875 75.03125 93.042969 75.28125 93.46875 C 75.777344 94.320312 76.703125 94.894531 77.765625 94.894531 C 78.292969 94.894531 78.785156 94.753906 79.210938 94.503906 C 80.066406 94.007812 80.640625 93.082031 80.640625 92.019531 "/>
<path style=" stroke:none;fill-rule:nonzero;fill:rgb(7.058716%,1.176453%,46.665955%);fill-opacity:1;" d="M 108.773438 53.992188 C 109.097656 53.992188 109.363281 54.253906 109.363281 54.582031 C 109.363281 54.910156 109.097656 55.175781 108.773438 55.175781 L 88.753906 55.175781 C 88.425781 55.175781 88.164062 54.910156 88.164062 54.582031 C 88.164062 54.253906 88.425781 53.992188 88.753906 53.992188 Z M 108.773438 53.992188 "/>
<path style=" stroke:none;fill-rule:nonzero;fill:rgb(7.058716%,1.176453%,46.665955%);fill-opacity:1;" d="M 88.535156 39.414062 C 88.535156 39.085938 88.800781 38.820312 89.128906 38.820312 C 89.453125 38.820312 89.71875 39.085938 89.71875 39.414062 L 89.71875 54.582031 C 89.71875 54.910156 89.453125 55.175781 89.128906 55.175781 C 88.800781 55.175781 88.535156 54.910156 88.535156 54.582031 Z M 88.535156 39.414062 "/>
<path style=" stroke:none;fill-rule:nonzero;fill:rgb(7.058716%,1.176453%,46.665955%);fill-opacity:1;" d="M 107.726562 71.222656 C 108.050781 71.222656 108.316406 71.488281 108.316406 71.8125 C 108.316406 72.140625 108.050781 72.40625 107.726562 72.40625 L 88.851562 72.40625 C 88.523438 72.40625 88.257812 72.140625 88.257812 71.8125 C 88.257812 71.488281 88.523438 71.222656 88.851562 71.222656 Z M 107.726562 71.222656 "/>
<path style=" stroke:none;fill-rule:nonzero;fill:rgb(7.058716%,1.176453%,46.665955%);fill-opacity:1;" d="M 88.753906 91.921875 C 88.742188 92.246094 88.46875 92.503906 88.140625 92.492188 C 87.816406 92.480469 87.558594 92.207031 87.570312 91.878906 L 88.257812 71.792969 C 88.269531 71.464844 88.542969 71.210938 88.871094 71.222656 C 89.199219 71.234375 89.453125 71.507812 89.441406 71.835938 Z M 88.753906 91.921875 "/>
<path style=" stroke:none;fill-rule:nonzero;fill:rgb(92.941284%,21.176147%,14.117432%);fill-opacity:1;" d="M 13.035156 28.125 C 13.152344 28.429688 12.996094 28.773438 12.691406 28.890625 C 12.386719 29.007812 12.042969 28.855469 11.925781 28.550781 C 11.734375 28.046875 11.546875 27.746094 11.5 27.332031 C 11.460938 27.007812 11.695312 26.710938 12.019531 26.675781 C 12.34375 26.636719 12.636719 26.871094 12.675781 27.195312 C 12.695312 27.375 12.636719 27.039062 12.640625 27.050781 C 12.679688 27.148438 13.296875 28.46875 13.75 29.890625 C 13.917969 30.410156 14.0625 30.90625 14.179688 31.332031 C 14.269531 31.648438 14.3125 31.914062 14.34375 32.078125 C 14.375 32.21875 14.394531 32.332031 14.40625 32.375 C 14.410156 32.382812 14.40625 32.367188 14.40625 32.378906 C 14.410156 32.382812 14.390625 32.328125 14.394531 32.347656 C 14.402344 32.363281 14.3125 32.207031 14.34375 32.253906 C 14.375 32.300781 14.15625 32.070312 14.230469 32.128906 C 14.484375 32.335938 14.523438 32.707031 14.316406 32.960938 C 14.113281 33.214844 13.738281 33.253906 13.484375 33.050781 C 13.410156 32.988281 13.378906 32.941406 13.355469 32.90625 C 13.242188 32.738281 13.269531 32.714844 13.257812 32.664062 C 13.234375 32.566406 13.210938 32.453125 13.183594 32.316406 C 13.144531 32.113281 13.109375 31.894531 13.039062 31.644531 C 12.925781 31.238281 12.785156 30.753906 12.621094 30.25 C 12.40625 29.574219 12.144531 28.90625 11.921875 28.375 C 11.816406 28.121094 11.726562 27.90625 11.65625 27.75 C 11.621094 27.675781 11.59375 27.617188 11.574219 27.570312 C 11.566406 27.550781 11.558594 27.535156 11.554688 27.519531 C 11.550781 27.515625 11.546875 27.507812 11.542969 27.5 C 11.539062 27.492188 11.53125 27.613281 11.5 27.332031 L 12.675781 27.195312 C 12.683594 27.269531 12.671875 27.164062 12.6875 27.214844 C 12.75 27.394531 12.886719 27.738281 13.035156 28.125 M 14.296875 32.988281 C 14.078125 33.230469 13.703125 33.246094 13.460938 33.023438 C 13.21875 32.804688 13.203125 32.429688 13.425781 32.1875 C 13.4375 32.175781 13.382812 32.238281 13.394531 32.226562 C 13.59375 31.96875 13.964844 31.917969 14.222656 32.117188 C 14.484375 32.320312 14.53125 32.691406 14.332031 32.949219 C 14.320312 32.960938 14.3125 32.976562 14.296875 32.988281 M 14.308594 32.976562 C 14.09375 33.222656 13.71875 33.25 13.472656 33.035156 C 13.226562 32.816406 13.203125 32.445312 13.417969 32.199219 C 13.464844 32.144531 13.316406 32.359375 13.332031 32.328125 C 13.375 32.242188 13.28125 32.484375 13.285156 32.464844 C 13.347656 32.132812 13.25 30.203125 13.332031 28.210938 C 13.375 27.199219 13.464844 26.222656 13.570312 25.449219 C 13.625 25.039062 13.664062 24.695312 13.789062 24.375 C 13.863281 24.171875 14.027344 23.921875 14.328125 23.832031 C 14.632812 23.738281 14.890625 23.855469 15.054688 23.96875 C 15.367188 24.179688 15.570312 24.480469 15.804688 24.839844 C 16.289062 25.59375 16.785156 26.601562 17.257812 27.585938 C 17.808594 28.730469 18.289062 29.832031 18.683594 30.691406 C 18.886719 31.144531 19.054688 31.503906 19.175781 31.671875 C 19.214844 31.726562 19.257812 31.769531 19.277344 31.789062 C 19.289062 31.796875 19.269531 31.785156 19.28125 31.792969 C 19.289062 31.796875 19.222656 31.765625 19.242188 31.773438 C 19.265625 31.78125 19.097656 31.734375 19.144531 31.742188 C 19.1875 31.75 18.828125 31.773438 18.921875 31.75 C 19.019531 31.726562 18.546875 32.027344 18.625 31.933594 C 18.71875 31.828125 18.492188 32.265625 18.503906 32.191406 C 18.515625 32.125 18.503906 32.375 18.5 32.339844 C 18.492188 32.285156 18.515625 32.40625 18.511719 32.402344 C 18.507812 32.390625 18.492188 32.359375 18.46875 32.320312 C 18.304688 32.039062 18.394531 31.675781 18.675781 31.507812 C 18.957031 31.34375 19.320312 31.433594 19.488281 31.714844 C 19.574219 31.863281 19.648438 31.980469 19.675781 32.1875 C 19.691406 32.300781 19.703125 32.503906 19.523438 32.707031 C 19.355469 32.90625 19.078125 32.933594 18.9375 32.910156 C 18.476562 32.824219 18.390625 32.605469 18.214844 32.367188 C 17.972656 32.03125 17.808594 31.632812 17.605469 31.183594 C 17.207031 30.3125 16.730469 29.222656 16.191406 28.101562 C 15.722656 27.128906 15.234375 26.144531 14.808594 25.484375 C 14.609375 25.179688 14.425781 24.972656 14.386719 24.945312 C 14.386719 24.945312 14.488281 24.980469 14.445312 24.96875 C 14.394531 24.957031 14.757812 24.9375 14.667969 24.964844 C 14.585938 24.992188 14.898438 24.804688 14.863281 24.84375 C 14.832031 24.878906 14.898438 24.789062 14.894531 24.796875 C 14.851562 24.90625 14.800781 25.210938 14.746094 25.609375 C 14.644531 26.339844 14.554688 27.289062 14.515625 28.261719 C 14.476562 29.226562 14.480469 30.175781 14.488281 30.976562 C 14.492188 31.742188 14.523438 32.28125 14.453125 32.675781 C 14.445312 32.71875 14.480469 32.78125 14.308594 32.976562 "/>
<path style=" stroke:none;fill-rule:nonzero;fill:rgb(92.941284%,21.176147%,14.117432%);fill-opacity:1;" d="M 15.160156 29.785156 C 15.433594 29.964844 15.515625 30.328125 15.335938 30.605469 C 15.160156 30.878906 14.792969 30.960938 14.519531 30.785156 C 14.289062 30.636719 14.085938 30.460938 13.917969 30.25 C 13.753906 30.03125 13.59375 29.746094 13.652344 29.378906 C 13.699219 29.070312 13.90625 28.867188 14.089844 28.746094 C 14.269531 28.628906 14.460938 28.558594 14.667969 28.503906 C 15.089844 28.386719 15.585938 28.328125 16.136719 28.296875 C 17.261719 28.234375 18.539062 28.292969 19.613281 28.4375 C 19.9375 28.480469 20.164062 28.78125 20.117188 29.105469 C 20.074219 29.429688 19.777344 29.65625 19.453125 29.613281 C 18.460938 29.476562 17.238281 29.421875 16.203125 29.480469 C 15.707031 29.507812 15.273438 29.566406 14.984375 29.644531 C 14.851562 29.683594 14.761719 29.722656 14.734375 29.742188 C 14.726562 29.746094 14.777344 29.691406 14.757812 29.714844 C 14.734375 29.746094 14.832031 29.492188 14.824219 29.558594 C 14.8125 29.617188 14.816406 29.460938 14.820312 29.464844 C 14.820312 29.464844 14.832031 29.488281 14.855469 29.523438 C 14.917969 29.601562 15.027344 29.703125 15.160156 29.785156 "/>
<path style=" stroke:none;fill-rule:nonzero;fill:rgb(92.941284%,21.176147%,14.117432%);fill-opacity:1;" d="M 14.007812 47.382812 C 14.234375 47.617188 14.226562 47.992188 13.992188 48.21875 C 13.753906 48.449219 13.378906 48.441406 13.152344 48.203125 C 13.113281 48.164062 13.382812 48.265625 13.34375 48.269531 C 13.308594 48.277344 13.339844 48.273438 13.3125 48.292969 C 13.277344 48.320312 13.375 48.222656 13.371094 48.234375 C 13.355469 48.253906 13.359375 48.28125 13.359375 48.285156 C 13.339844 48.609375 13.054688 48.859375 12.730469 48.835938 C 12.402344 48.8125 12.15625 48.53125 12.179688 48.203125 C 12.214844 47.675781 12.4375 47.597656 12.519531 47.417969 C 12.777344 46.859375 12.847656 45.21875 13.527344 43.921875 C 14.226562 42.589844 15.753906 42.03125 17.035156 41.90625 C 17.519531 41.855469 18.023438 41.730469 18.570312 41.976562 C 18.882812 42.117188 19.097656 42.367188 19.234375 42.625 C 19.367188 42.882812 19.441406 43.160156 19.464844 43.4375 C 19.515625 44.019531 19.203125 44.496094 18.851562 44.871094 C 18.5 45.25 18.066406 45.570312 17.640625 45.867188 C 17.246094 46.140625 16.878906 46.375 16.652344 46.578125 C 16.488281 46.730469 16.433594 46.765625 16.414062 46.816406 C 16.386719 46.882812 16.441406 46.488281 16.449219 46.574219 C 16.457031 46.65625 16.359375 46.324219 16.386719 46.371094 C 16.414062 46.421875 16.292969 46.257812 16.3125 46.277344 C 16.328125 46.292969 16.285156 46.253906 16.285156 46.253906 C 16.28125 46.25 16.34375 46.28125 16.449219 46.316406 C 16.6875 46.398438 17.039062 46.480469 17.40625 46.5625 C 18.667969 46.84375 19.882812 47.359375 20.472656 48.253906 C 20.683594 48.570312 20.769531 48.984375 20.65625 49.339844 C 20.546875 49.6875 20.296875 49.9375 20.027344 50.125 C 19.484375 50.503906 18.769531 50.714844 17.992188 50.859375 C 17.210938 51.003906 16.382812 51.0625 15.628906 51.03125 C 14.890625 51 14.234375 50.921875 13.730469 50.558594 C 13.464844 50.367188 13.40625 49.996094 13.597656 49.730469 C 13.789062 49.464844 14.160156 49.40625 14.425781 49.597656 C 14.726562 49.816406 16.382812 49.953125 17.777344 49.695312 C 18.457031 49.566406 19.046875 49.367188 19.351562 49.15625 C 19.484375 49.0625 19.523438 48.988281 19.527344 48.980469 C 19.527344 48.980469 19.546875 49 19.484375 48.90625 C 19.222656 48.511719 18.21875 47.957031 17.148438 47.71875 C 16.769531 47.636719 16.390625 47.550781 16.070312 47.441406 C 15.910156 47.386719 15.765625 47.332031 15.613281 47.230469 C 15.53125 47.171875 15.4375 47.101562 15.355469 46.957031 C 15.269531 46.808594 15.238281 46.554688 15.316406 46.367188 C 15.453125 46.03125 15.667969 45.871094 15.859375 45.699219 C 16.195312 45.398438 16.589844 45.152344 16.964844 44.894531 C 17.359375 44.617188 17.734375 44.332031 17.984375 44.0625 C 18.21875 43.8125 18.292969 43.617188 18.285156 43.542969 C 18.273438 43.40625 18.234375 43.273438 18.1875 43.179688 C 18.140625 43.09375 18.097656 43.0625 18.082031 43.054688 C 18 43.019531 17.664062 43.035156 17.152344 43.082031 C 16.132812 43.183594 15 43.667969 14.578125 44.472656 C 14.074219 45.433594 14.046875 46.929688 13.597656 47.910156 C 13.523438 48.074219 13.441406 48.203125 13.386719 48.300781 C 13.363281 48.34375 13.34375 48.378906 13.339844 48.390625 C 13.335938 48.394531 13.347656 48.363281 13.34375 48.378906 C 13.339844 48.394531 13.363281 48.234375 13.359375 48.285156 L 12.179688 48.203125 C 12.191406 48.023438 12.1875 47.660156 12.59375 47.351562 C 12.742188 47.238281 12.933594 47.128906 13.183594 47.097656 C 13.441406 47.0625 13.785156 47.152344 14.007812 47.382812 "/>
<path style=" stroke:none;fill-rule:nonzero;fill:rgb(92.941284%,21.176147%,14.117432%);fill-opacity:1;" d="M 19.402344 77.402344 C 19.550781 77.695312 19.4375 78.050781 19.148438 78.203125 C 18.855469 78.351562 18.5 78.238281 18.347656 77.949219 C 18.125 77.515625 18.285156 77.289062 18.335938 77.085938 C 18.382812 76.890625 18.417969 76.714844 18.417969 76.664062 C 18.414062 76.601562 18.546875 76.90625 18.503906 76.863281 C 18.46875 76.828125 18.558594 76.894531 18.519531 76.886719 C 18.335938 76.847656 18.039062 76.839844 17.652344 76.953125 C 16.992188 77.148438 16.097656 77.789062 15.351562 78.496094 C 14.792969 79.03125 14.398438 79.664062 14.21875 80.179688 C 14.140625 80.414062 14.136719 80.59375 14.179688 80.738281 C 14.21875 80.871094 14.390625 81.074219 14.695312 81.269531 C 15.019531 81.472656 15.441406 81.648438 15.867188 81.789062 C 17.332031 82.277344 18.671875 82.234375 19.5 82.15625 C 19.828125 82.125 20.117188 82.363281 20.144531 82.6875 C 20.175781 83.015625 19.9375 83.304688 19.613281 83.335938 C 18.699219 83.421875 17.179688 83.476562 15.492188 82.914062 C 15.011719 82.753906 14.511719 82.550781 14.066406 82.269531 C 13.621094 81.992188 13.199219 81.617188 13.042969 81.070312 C 12.921875 80.664062 12.953125 80.21875 13.101562 79.792969 C 13.351562 79.070312 13.839844 78.304688 14.535156 77.640625 C 15.363281 76.851562 16.328125 76.109375 17.320312 75.816406 C 17.882812 75.652344 18.378906 75.644531 18.765625 75.726562 C 18.957031 75.769531 19.152344 75.847656 19.316406 76 C 19.484375 76.160156 19.597656 76.40625 19.601562 76.636719 C 19.609375 76.941406 19.53125 77.179688 19.484375 77.367188 C 19.464844 77.453125 19.449219 77.523438 19.445312 77.554688 C 19.445312 77.566406 19.445312 77.527344 19.445312 77.546875 C 19.445312 77.574219 19.363281 77.332031 19.402344 77.402344 "/>
<path style=" stroke:none;fill-rule:nonzero;fill:rgb(92.941284%,21.176147%,14.117432%);fill-opacity:1;" d="M 15.539062 97.921875 C 15.636719 98.234375 15.464844 98.566406 15.152344 98.664062 C 14.839844 98.761719 14.503906 98.585938 14.410156 98.273438 C 14.398438 98.242188 14.394531 98.234375 14.394531 98.230469 C 14.390625 98.226562 14.429688 98.296875 14.414062 98.269531 C 14.40625 98.257812 14.472656 98.351562 14.453125 98.328125 C 14.433594 98.300781 14.605469 98.46875 14.554688 98.425781 C 14.488281 98.375 14.921875 98.5625 14.796875 98.535156 C 14.699219 98.515625 15.21875 98.472656 15.117188 98.511719 C 15.039062 98.539062 15.347656 98.355469 15.300781 98.398438 C 15.234375 98.457031 15.449219 98.195312 15.425781 98.242188 C 15.402344 98.28125 15.472656 98.117188 15.464844 98.144531 C 15.457031 98.171875 15.488281 98.03125 15.484375 98.046875 C 15.484375 98.0625 15.488281 98.03125 15.488281 98.03125 C 15.488281 98.0625 15.503906 98.253906 15.53125 98.46875 C 15.597656 98.972656 15.734375 99.671875 15.820312 100.304688 C 15.859375 100.613281 15.839844 100.863281 15.847656 100.972656 C 15.855469 101.105469 15.867188 101.191406 15.871094 101.203125 C 15.871094 101.210938 15.820312 101.089844 15.84375 101.132812 C 15.855469 101.152344 15.757812 101.011719 15.785156 101.046875 C 15.816406 101.082031 15.59375 100.890625 15.65625 100.925781 C 15.707031 100.957031 15.324219 100.832031 15.410156 100.839844 C 15.496094 100.851562 15.109375 100.886719 15.175781 100.867188 C 15.253906 100.839844 14.980469 100.976562 15.011719 100.953125 C 15.042969 100.929688 14.941406 101.019531 14.953125 101.007812 C 14.976562 100.980469 15.183594 100.09375 15.550781 99.191406 C 16.019531 98.03125 16.777344 96.957031 17.679688 96.265625 C 18.226562 95.847656 18.867188 95.65625 19.46875 95.671875 C 20.066406 95.6875 20.582031 96.003906 20.96875 96.417969 C 21.359375 96.828125 21.644531 97.351562 21.828125 97.914062 C 22.054688 98.617188 22.089844 99.378906 21.949219 100.082031 C 21.722656 101.214844 20.820312 102.03125 19.871094 102.492188 C 18.75 103.03125 17.480469 102.988281 16.378906 102.726562 C 15.300781 102.46875 14.386719 102.023438 13.832031 101.5 C 13.59375 101.277344 13.582031 100.902344 13.804688 100.664062 C 14.03125 100.425781 14.40625 100.414062 14.644531 100.636719 C 15.355469 101.308594 17.785156 102.183594 19.351562 101.421875 C 20.0625 101.082031 20.664062 100.476562 20.785156 99.851562 C 20.886719 99.347656 20.859375 98.773438 20.699219 98.28125 C 20.566406 97.867188 20.351562 97.488281 20.105469 97.226562 C 19.875 96.980469 19.636719 96.863281 19.433594 96.855469 C 19.105469 96.847656 18.726562 96.957031 18.398438 97.207031 C 17.714844 97.730469 17.042969 98.660156 16.648438 99.636719 C 16.34375 100.386719 16.382812 101.199219 15.828125 101.804688 C 15.785156 101.855469 15.722656 101.933594 15.546875 101.992188 C 15.394531 102.042969 15.171875 102.019531 15.027344 101.933594 C 14.757812 101.757812 14.75 101.597656 14.726562 101.503906 C 14.679688 101.335938 14.675781 101.203125 14.667969 101.050781 C 14.652344 100.816406 14.667969 100.628906 14.644531 100.460938 C 14.566406 99.878906 14.429688 99.183594 14.355469 98.625 C 14.324219 98.386719 14.300781 98.191406 14.304688 98.007812 C 14.304688 97.960938 14.300781 97.90625 14.332031 97.800781 C 14.359375 97.71875 14.386719 97.578125 14.601562 97.445312 C 14.84375 97.304688 15.175781 97.40625 15.289062 97.5 C 15.628906 97.761719 15.507812 97.816406 15.539062 97.921875 "/>
<path style=" stroke:none;fill-rule:nonzero;fill:rgb(92.941284%,21.176147%,14.117432%);fill-opacity:1;" d="M 172.808594 57.894531 C 172.945312 57.597656 173.292969 57.464844 173.59375 57.601562 C 173.890625 57.734375 174.023438 58.085938 173.886719 58.386719 C 173.859375 58.445312 173.917969 58.222656 173.917969 58.25 C 173.917969 58.269531 173.914062 58.230469 173.921875 58.246094 C 173.933594 58.292969 173.976562 58.382812 174.042969 58.496094 C 174.1875 58.734375 174.421875 59.027344 174.683594 59.324219 C 175.21875 59.933594 175.765625 60.519531 176.292969 60.878906 C 176.789062 61.21875 177.1875 61.320312 177.554688 61.164062 C 177.859375 61.039062 178.203125 61.183594 178.328125 61.488281 C 178.453125 61.789062 178.308594 62.136719 178.007812 62.261719 C 177.179688 62.605469 176.300781 62.320312 175.621094 61.855469 C 174.9375 61.386719 174.347656 60.738281 173.792969 60.109375 C 173.507812 59.78125 173.238281 59.449219 173.03125 59.113281 C 172.929688 58.945312 172.84375 58.78125 172.789062 58.59375 C 172.730469 58.40625 172.6875 58.160156 172.808594 57.894531 "/>
<path style=" stroke:none;fill-rule:nonzero;fill:rgb(92.941284%,21.176147%,14.117432%);fill-opacity:1;" d="M 179.820312 56.996094 C 180.148438 57.011719 180.402344 57.285156 180.386719 57.613281 C 180.375 57.941406 180.097656 58.195312 179.773438 58.179688 C 179.605469 58.175781 179.5 58.203125 179.386719 58.289062 C 179.261719 58.382812 179.105469 58.585938 178.957031 58.945312 C 178.5 60.054688 178.089844 62.140625 177.722656 64.074219 C 177.546875 65.023438 177.386719 65.898438 177.242188 66.582031 C 177.175781 66.90625 177.113281 67.179688 177.046875 67.398438 C 177.015625 67.503906 176.984375 67.597656 176.933594 67.699219 C 176.910156 67.753906 176.878906 67.8125 176.816406 67.886719 C 176.742188 67.96875 176.59375 68.109375 176.332031 68.105469 C 176.003906 68.101562 175.742188 67.832031 175.746094 67.507812 C 175.75 67.179688 176.019531 66.917969 176.347656 66.921875 C 176.46875 66.921875 175.980469 67.042969 176.046875 67 C 176.105469 66.96875 175.910156 67.121094 175.933594 67.09375 C 175.972656 67.054688 175.867188 67.1875 175.875 67.171875 C 175.886719 67.152344 175.886719 67.144531 175.910156 67.0625 C 175.957031 66.898438 176.019531 66.648438 176.082031 66.335938 C 176.222656 65.679688 176.378906 64.808594 176.558594 63.855469 C 176.929688 61.90625 177.316406 59.816406 177.859375 58.496094 C 178.0625 58 178.324219 57.605469 178.671875 57.34375 C 179.015625 57.082031 179.4375 56.980469 179.820312 56.996094 "/>
<path style=" stroke:none;fill-rule:nonzero;fill:rgb(92.941284%,21.176147%,14.117432%);fill-opacity:1;" d="M 98.226562 39.019531 C 98.261719 39.34375 98.03125 39.636719 97.703125 39.675781 C 97.378906 39.710938 97.085938 39.476562 97.050781 39.152344 C 97.03125 38.992188 97 38.992188 97.023438 38.753906 C 97.027344 38.707031 96.984375 38.632812 97.160156 38.425781 C 97.371094 38.175781 97.746094 38.144531 97.996094 38.355469 C 98.246094 38.566406 98.277344 38.941406 98.066406 39.191406 C 98.019531 39.246094 98.171875 39.011719 98.15625 39.046875 C 98.132812 39.101562 98.199219 38.90625 98.191406 38.933594 C 98.1875 38.957031 98.203125 38.859375 98.203125 38.875 C 98.195312 38.941406 98.203125 38.800781 98.203125 38.800781 C 98.203125 38.816406 98.214844 38.898438 98.226562 39.019531 M 97.332031 39.328125 C 97.042969 39.171875 96.9375 38.8125 97.09375 38.523438 C 97.25 38.238281 97.609375 38.132812 97.898438 38.289062 C 98.203125 38.453125 98.140625 38.535156 98.160156 38.570312 C 98.171875 38.601562 98.179688 38.621094 98.183594 38.636719 C 98.199219 38.683594 98.210938 38.722656 98.222656 38.769531 C 98.285156 38.976562 98.386719 39.332031 98.558594 39.757812 C 98.785156 40.328125 99.238281 41.035156 99.757812 41.722656 C 100.304688 42.445312 100.996094 43.070312 101.609375 43.488281 C 101.902344 43.6875 102.164062 43.832031 102.351562 43.90625 C 102.433594 43.9375 102.496094 43.953125 102.507812 43.953125 C 102.507812 43.953125 102.425781 43.960938 102.460938 43.957031 C 102.5 43.949219 102.226562 44.078125 102.292969 44.03125 C 102.558594 43.835938 102.929688 43.894531 103.121094 44.160156 C 103.3125 44.425781 103.253906 44.796875 102.992188 44.988281 C 102.773438 45.148438 102.554688 45.148438 102.386719 45.132812 C 102.21875 45.113281 102.070312 45.070312 101.921875 45.011719 C 101.613281 44.890625 101.285156 44.703125 100.9375 44.464844 C 100.222656 43.976562 99.449219 43.277344 98.8125 42.4375 C 98.253906 41.699219 97.75 40.9375 97.457031 40.199219 C 97.261719 39.714844 97.148438 39.308594 97.085938 39.097656 C 97.074219 39.054688 97.0625 39.019531 97.0625 39.019531 C 97.0625 39.019531 97.089844 39.082031 97.078125 39.058594 C 97.074219 39.042969 97.136719 39.160156 97.117188 39.128906 C 97.105469 39.109375 97.199219 39.234375 97.171875 39.203125 C 97.140625 39.167969 97.417969 39.375 97.332031 39.328125 "/>
<path style=" stroke:none;fill-rule:nonzero;fill:rgb(92.941284%,21.176147%,14.117432%);fill-opacity:1;" d="M 97.765625 45.328125 C 97.707031 45.648438 97.398438 45.863281 97.074219 45.804688 C 96.753906 45.742188 96.542969 45.433594 96.601562 45.113281 C 96.605469 45.078125 96.597656 45.160156 96.59375 45.136719 C 96.578125 45.027344 96.441406 44.679688 96.503906 44.21875 C 96.558594 43.835938 96.753906 43.542969 96.96875 43.234375 C 97.726562 42.148438 99.105469 40.921875 100.3125 39.78125 C 100.898438 39.230469 101.417969 38.730469 101.746094 38.355469 C 101.898438 38.183594 102 38.039062 102.019531 38 C 102.023438 37.996094 102.007812 38.039062 102.015625 38.019531 C 102.019531 38.003906 102 38.140625 102.003906 38.101562 C 102.003906 38.035156 102.125 38.453125 102.070312 38.359375 C 102.015625 38.261719 102.351562 38.582031 102.285156 38.550781 C 101.984375 38.417969 101.855469 38.066406 101.992188 37.765625 C 102.125 37.46875 102.476562 37.339844 102.777344 37.472656 C 102.976562 37.566406 103.167969 37.835938 103.183594 38.0625 C 103.199219 38.269531 103.140625 38.40625 103.082031 38.523438 C 102.972656 38.746094 102.824219 38.929688 102.636719 39.140625 C 102.25 39.578125 101.71875 40.085938 101.125 40.644531 C 99.917969 41.785156 98.558594 43.03125 97.941406 43.910156 C 97.761719 44.167969 97.683594 44.347656 97.679688 44.386719 C 97.652344 44.578125 97.871094 44.746094 97.765625 45.328125 "/>
<path style=" stroke:none;fill-rule:nonzero;fill:rgb(92.941284%,21.176147%,14.117432%);fill-opacity:1;" d="M 97.25 82.378906 C 97.09375 82.667969 96.730469 82.773438 96.445312 82.617188 C 96.15625 82.460938 96.050781 82.101562 96.207031 81.8125 C 96.238281 81.757812 96.164062 82.023438 96.164062 81.980469 C 96.164062 81.941406 96.171875 82.03125 96.171875 82.03125 C 96.167969 82.019531 96.136719 81.960938 96.089844 81.875 C 96.042969 81.785156 95.941406 81.664062 95.972656 81.382812 C 95.988281 81.222656 96.089844 81.042969 96.203125 80.945312 C 96.335938 80.839844 96.449219 80.804688 96.539062 80.785156 C 97.402344 80.605469 98.765625 80.835938 99.976562 81.183594 C 100.71875 81.398438 101.347656 81.734375 101.714844 82.269531 C 101.976562 82.652344 102.042969 83.179688 101.867188 83.621094 C 101.621094 84.238281 101.117188 84.523438 100.792969 84.875 C 100.46875 85.230469 100.25 85.769531 100.160156 86.195312 C 100.109375 86.457031 100.089844 86.496094 100.109375 86.539062 C 100.136719 86.589844 100.058594 86.476562 100.074219 86.488281 C 100.097656 86.5 100.15625 86.527344 100.242188 86.550781 C 100.417969 86.597656 100.675781 86.628906 100.9375 86.65625 C 102.601562 86.8125 104.132812 86.714844 105.3125 86.21875 C 105.613281 86.089844 105.960938 86.234375 106.089844 86.535156 C 106.214844 86.835938 106.074219 87.183594 105.773438 87.3125 C 104.328125 87.921875 102.609375 88.003906 100.824219 87.835938 C 100.539062 87.808594 100.230469 87.777344 99.925781 87.691406 C 99.621094 87.609375 99.257812 87.476562 99.050781 87.074219 C 98.835938 86.652344 98.9375 86.269531 99 85.960938 C 99.121094 85.359375 99.394531 84.648438 99.921875 84.074219 C 100.335938 83.621094 100.726562 83.277344 100.765625 83.183594 C 100.808594 83.070312 100.804688 83.039062 100.734375 82.9375 C 100.613281 82.761719 100.214844 82.488281 99.644531 82.324219 C 98.589844 82.015625 97.144531 81.871094 96.777344 81.949219 C 96.765625 81.949219 96.867188 81.917969 96.839844 81.929688 C 96.808594 81.941406 96.996094 81.828125 96.953125 81.863281 C 96.929688 81.882812 97.125 81.636719 97.089844 81.699219 C 97.054688 81.761719 97.15625 81.445312 97.148438 81.507812 C 97.144531 81.558594 97.140625 81.339844 97.144531 81.371094 C 97.152344 81.417969 97.121094 81.289062 97.125 81.296875 C 97.128906 81.304688 97.125 81.296875 97.128906 81.308594 C 97.167969 81.378906 97.238281 81.488281 97.292969 81.652344 C 97.351562 81.828125 97.394531 82.109375 97.25 82.378906 "/>
<path style=" stroke:none;fill-rule:nonzero;fill:rgb(92.941284%,21.176147%,14.117432%);fill-opacity:1;" d="M 98.441406 85.167969 C 98.769531 85.15625 99.042969 85.414062 99.054688 85.742188 C 99.066406 86.070312 98.808594 86.34375 98.480469 86.351562 C 98.320312 86.359375 98.191406 86.359375 98.0625 86.339844 C 98 86.332031 97.929688 86.324219 97.828125 86.28125 C 97.71875 86.234375 97.5 86.113281 97.445312 85.816406 C 97.390625 85.515625 97.550781 85.332031 97.632812 85.25 C 97.835938 85.050781 97.96875 85.035156 98.148438 84.96875 C 98.65625 84.78125 99.441406 84.585938 100.351562 84.390625 C 101.285156 84.1875 102.296875 84.007812 103.210938 83.898438 C 104.097656 83.792969 104.8125 83.695312 105.40625 83.917969 C 105.714844 84.035156 105.871094 84.375 105.753906 84.683594 C 105.640625 84.988281 105.300781 85.144531 104.992188 85.03125 C 104.640625 84.898438 102.421875 85.15625 100.601562 85.546875 C 99.71875 85.738281 98.957031 85.933594 98.554688 86.082031 C 98.464844 86.113281 98.40625 86.140625 98.398438 86.148438 C 98.398438 86.148438 98.507812 86.050781 98.460938 86.09375 C 98.433594 86.121094 98.601562 85.878906 98.5625 85.953125 C 98.542969 85.992188 98.621094 85.742188 98.613281 85.800781 C 98.601562 85.863281 98.597656 85.527344 98.609375 85.597656 C 98.625 85.667969 98.507812 85.355469 98.539062 85.410156 C 98.597656 85.507812 98.308594 85.195312 98.359375 85.226562 C 98.402344 85.253906 98.242188 85.171875 98.265625 85.179688 C 98.332031 85.203125 98.207031 85.167969 98.242188 85.167969 C 98.285156 85.171875 98.351562 85.171875 98.441406 85.167969 "/>
</g>
</svg>
