<?xml version="1.0" encoding="utf-8" ?>
<svg baseProfile="tiny" height="972.0" version="1.2" width="972.0" xmlns="http://www.w3.org/2000/svg" xmlns:ev="http://www.w3.org/2001/xml-events" xmlns:xlink="http://www.w3.org/1999/xlink"><defs /><g><g><text font-family="Arial" font-size="16.875" text-anchor="start" transform="rotate(270,692.4375, 207.5625)" x="692.4375" y="207.5625">37</text><rect fill="white" height="33.75" stroke="black" stroke-width="1" width="16.875" x="675.5625" y="216.0" /><text fill="black" font-family="Arial" font-size="16.875" text-anchor="start" transform="rotate(270,692.4375, 173.8125)" x="692.4375" y="173.8125">P0.25</text></g><g><text font-family="Arial" font-size="16.875" text-anchor="start" transform="rotate(270,656.4375, 207.5625)" x="656.4375" y="207.5625">38</text><rect fill="white" height="33.75" stroke="black" stroke-width="1" width="16.875" x="639.5625" y="216.0" /><text fill="black" font-family="Arial" font-size="16.875" text-anchor="start" transform="rotate(270,656.4375, 173.8125)" x="656.4375" y="173.8125">P0.26</text></g><g><text font-family="Arial" font-size="16.875" text-anchor="start" transform="rotate(270,620.4375, 207.5625)" x="620.4375" y="207.5625">39</text><rect fill="white" height="33.75" stroke="black" stroke-width="1" width="16.875" x="603.5625" y="216.0" /><text fill="black" font-family="Arial" font-size="16.875" text-anchor="start" transform="rotate(270,620.4375, 173.8125)" x="620.4375" y="173.8125">P0.27</text></g><g><text font-family="Arial" font-size="16.875" text-anchor="start" transform="rotate(270,584.4375, 207.5625)" x="584.4375" y="207.5625">40</text><rect fill="white" height="33.75" stroke="black" stroke-width="1" width="16.875" x="567.5625" y="216.0" /><text fill="black" font-family="Arial" font-size="16.875" text-anchor="start" transform="rotate(270,584.4375, 173.8125)" x="584.4375" y="173.8125">P0.28</text></g><g><text font-family="Arial" font-size="16.875" text-anchor="start" transform="rotate(270,548.4375, 207.5625)" x="548.4375" y="207.5625">41</text><rect fill="white" height="33.75" stroke="black" stroke-width="1" width="16.875" x="531.5625" y="216.0" /><text fill="black" font-family="Arial" font-size="16.875" text-anchor="start" transform="rotate(270,548.4375, 173.8125)" x="548.4375" y="173.8125">P0.29</text></g><g><text font-family="Arial" font-size="16.875" text-anchor="start" transform="rotate(270,512.4375, 207.5625)" x="512.4375" y="207.5625">42</text><rect fill="white" height="33.75" stroke="black" stroke-width="1" width="16.875" x="495.5625" y="216.0" /><text fill="black" font-family="Arial" font-size="16.875" text-anchor="start" transform="rotate(270,512.4375, 173.8125)" x="512.4375" y="173.8125">P0.30</text></g><g><text font-family="Arial" font-size="16.875" text-anchor="start" transform="rotate(270,476.4375, 207.5625)" x="476.4375" y="207.5625">43</text><rect fill="white" height="33.75" stroke="black" stroke-width="1" width="16.875" x="459.5625" y="216.0" /><text fill="black" font-family="Arial" font-size="16.875" text-anchor="start" transform="rotate(270,476.4375, 173.8125)" x="476.4375" y="173.8125">P0.31</text></g><g><text font-family="Arial" font-size="16.875" text-anchor="start" transform="rotate(270,440.4375, 207.5625)" x="440.4375" y="207.5625">44</text><rect fill="white" height="33.75" stroke="black" stroke-width="1" width="16.875" x="423.5625" y="216.0" /><text fill="gray" font-family="Arial" font-size="16.875" text-anchor="start" transform="rotate(270,440.4375, 173.8125)" x="440.4375" y="173.8125">NC</text></g><g><text font-family="Arial" font-size="16.875" text-anchor="start" transform="rotate(270,404.4375, 207.5625)" x="404.4375" y="207.5625">45</text><rect fill="white" height="33.75" stroke="black" stroke-width="1" width="16.875" x="387.5625" y="216.0" /><text fill="blue" font-family="Arial" font-size="16.875" text-anchor="start" transform="rotate(270,404.4375, 173.8125)" x="404.4375" y="173.8125">VSS</text></g><g><text font-family="Arial" font-size="16.875" text-anchor="start" transform="rotate(270,368.4375, 207.5625)" x="368.4375" y="207.5625">46</text><rect fill="white" height="33.75" stroke="black" stroke-width="1" width="16.875" x="351.5625" y="216.0" /><text fill="red" font-family="Arial" font-size="16.875" text-anchor="start" transform="rotate(270,368.4375, 173.8125)" x="368.4375" y="173.8125">DEC4</text></g><g><text font-family="Arial" font-size="16.875" text-anchor="start" transform="rotate(270,332.4375, 207.5625)" x="332.4375" y="207.5625">47</text><rect fill="white" height="33.75" stroke="black" stroke-width="1" width="16.875" x="315.5625" y="216.0" /><text fill="green" font-family="Arial" font-size="16.875" text-anchor="start" transform="rotate(270,332.4375, 173.8125)" x="332.4375" y="173.8125">DCC</text></g><g><text font-family="Arial" font-size="16.875" text-anchor="start" transform="rotate(270,296.4375, 207.5625)" x="296.4375" y="207.5625">48</text><rect fill="white" height="33.75" stroke="black" stroke-width="1" width="16.875" x="279.5625" y="216.0" /><text fill="red" font-family="Arial" font-size="16.875" text-anchor="start" transform="rotate(270,296.4375, 173.8125)" x="296.4375" y="173.8125">VDD</text></g></g><g><g><text font-family="Arial" font-size="16.875" text-anchor="end" transform="rotate(270,692.4375, 764.4375)" x="692.4375" y="764.4375">24</text><rect fill="white" height="33.75" stroke="black" stroke-width="1" width="16.875" x="675.5625" y="722.25" /><text fill="black" font-family="Arial" font-size="16.875" text-anchor="end" transform="rotate(270,692.4375, 798.1875)" x="692.4375" y="798.1875">P0.21</text></g><g><text font-family="Arial" font-size="16.875" text-anchor="end" transform="rotate(270,656.4375, 764.4375)" x="656.4375" y="764.4375">23</text><rect fill="white" height="33.75" stroke="black" stroke-width="1" width="16.875" x="639.5625" y="722.25" /><text fill="black" font-family="Arial" font-size="16.875" text-anchor="end" transform="rotate(270,656.4375, 798.1875)" x="656.4375" y="798.1875">P0.20</text></g><g><text font-family="Arial" font-size="16.875" text-anchor="end" transform="rotate(270,620.4375, 764.4375)" x="620.4375" y="764.4375">22</text><rect fill="white" height="33.75" stroke="black" stroke-width="1" width="16.875" x="603.5625" y="722.25" /><text fill="black" font-family="Arial" font-size="16.875" text-anchor="end" transform="rotate(270,620.4375, 798.1875)" x="620.4375" y="798.1875">P0.19</text></g><g><text font-family="Arial" font-size="16.875" text-anchor="end" transform="rotate(270,584.4375, 764.4375)" x="584.4375" y="764.4375">21</text><rect fill="white" height="33.75" stroke="black" stroke-width="1" width="16.875" x="567.5625" y="722.25" /><text fill="black" font-family="Arial" font-size="16.875" text-anchor="end" transform="rotate(270,584.4375, 798.1875)" x="584.4375" y="798.1875">P0.18</text></g><g><text font-family="Arial" font-size="16.875" text-anchor="end" transform="rotate(270,548.4375, 764.4375)" x="548.4375" y="764.4375">20</text><rect fill="white" height="33.75" stroke="black" stroke-width="1" width="16.875" x="531.5625" y="722.25" /><text fill="black" font-family="Arial" font-size="16.875" text-anchor="end" transform="rotate(270,548.4375, 798.1875)" x="548.4375" y="798.1875">P0.17</text></g><g><text font-family="Arial" font-size="16.875" text-anchor="end" transform="rotate(270,512.4375, 764.4375)" x="512.4375" y="764.4375">19</text><rect fill="white" height="33.75" stroke="black" stroke-width="1" width="16.875" x="495.5625" y="722.25" /><text fill="black" font-family="Arial" font-size="16.875" text-anchor="end" transform="rotate(270,512.4375, 798.1875)" x="512.4375" y="798.1875">P0.16</text></g><g><text font-family="Arial" font-size="16.875" text-anchor="end" transform="rotate(270,476.4375, 764.4375)" x="476.4375" y="764.4375">18</text><rect fill="white" height="33.75" stroke="black" stroke-width="1" width="16.875" x="459.5625" y="722.25" /><text fill="black" font-family="Arial" font-size="16.875" text-anchor="end" transform="rotate(270,476.4375, 798.1875)" x="476.4375" y="798.1875">P0.15</text></g><g><text font-family="Arial" font-size="16.875" text-anchor="end" transform="rotate(270,440.4375, 764.4375)" x="440.4375" y="764.4375">17</text><rect fill="white" height="33.75" stroke="black" stroke-width="1" width="16.875" x="423.5625" y="722.25" /><text fill="black" font-family="Arial" font-size="16.875" text-anchor="end" transform="rotate(270,440.4375, 798.1875)" x="440.4375" y="798.1875">P0.14</text></g><g><text font-family="Arial" font-size="16.875" text-anchor="end" transform="rotate(270,404.4375, 764.4375)" x="404.4375" y="764.4375">16</text><rect fill="white" height="33.75" stroke="black" stroke-width="1" width="16.875" x="387.5625" y="722.25" /><text fill="black" font-family="Arial" font-size="16.875" text-anchor="end" transform="rotate(270,404.4375, 798.1875)" x="404.4375" y="798.1875">P0.13</text></g><g><text font-family="Arial" font-size="16.875" text-anchor="end" transform="rotate(270,368.4375, 764.4375)" x="368.4375" y="764.4375">15</text><rect fill="white" height="33.75" stroke="black" stroke-width="1" width="16.875" x="351.5625" y="722.25" /><text fill="black" font-family="Arial" font-size="16.875" text-anchor="end" transform="rotate(270,368.4375, 798.1875)" x="368.4375" y="798.1875">P0.12</text></g><g><text font-family="Arial" font-size="16.875" text-anchor="end" transform="rotate(270,332.4375, 764.4375)" x="332.4375" y="764.4375">14</text><rect fill="white" height="33.75" stroke="black" stroke-width="1" width="16.875" x="315.5625" y="722.25" /><text fill="black" font-family="Arial" font-size="16.875" text-anchor="end" transform="rotate(270,332.4375, 798.1875)" x="332.4375" y="798.1875">P0.11</text></g><g><text font-family="Arial" font-size="16.875" text-anchor="end" transform="rotate(270,296.4375, 764.4375)" x="296.4375" y="764.4375">13</text><rect fill="white" height="33.75" stroke="black" stroke-width="1" width="16.875" x="279.5625" y="722.25" /><text fill="red" font-family="Arial" font-size="16.875" text-anchor="end" transform="rotate(270,296.4375, 798.1875)" x="296.4375" y="798.1875">VDD</text></g></g><g><g><text font-family="Arial" font-size="16.875" text-anchor="end" transform="rotate(0,207.5625, 296.4375)" x="207.5625" y="296.4375">1</text><rect fill="white" height="16.875" stroke="black" stroke-width="1" width="33.75" x="216.0" y="279.5625" /><text fill="red" font-family="Arial" font-size="16.875" text-anchor="end" transform="rotate(0,173.8125, 296.4375)" x="173.8125" y="296.4375">DEC1</text></g><g><text font-family="Arial" font-size="16.875" text-anchor="end" transform="rotate(0,207.5625, 332.4375)" x="207.5625" y="332.4375">2</text><rect fill="white" height="16.875" stroke="black" stroke-width="1" width="33.75" x="216.0" y="315.5625" /><text fill="black" font-family="Arial" font-size="16.875" text-anchor="end" transform="rotate(0,173.8125, 332.4375)" x="173.8125" y="332.4375">P0.00</text></g><g><text font-family="Arial" font-size="16.875" text-anchor="end" transform="rotate(0,207.5625, 368.4375)" x="207.5625" y="368.4375">3</text><rect fill="white" height="16.875" stroke="black" stroke-width="1" width="33.75" x="216.0" y="351.5625" /><text fill="black" font-family="Arial" font-size="16.875" text-anchor="end" transform="rotate(0,173.8125, 368.4375)" x="173.8125" y="368.4375">P0.01</text></g><g><text font-family="Arial" font-size="16.875" text-anchor="end" transform="rotate(0,207.5625, 404.4375)" x="207.5625" y="404.4375">4</text><rect fill="white" height="16.875" stroke="black" stroke-width="1" width="33.75" x="216.0" y="387.5625" /><text fill="black" font-family="Arial" font-size="16.875" text-anchor="end" transform="rotate(0,173.8125, 404.4375)" x="173.8125" y="404.4375">P0.02</text></g><g><text font-family="Arial" font-size="16.875" text-anchor="end" transform="rotate(0,207.5625, 440.4375)" x="207.5625" y="440.4375">5</text><rect fill="white" height="16.875" stroke="black" stroke-width="1" width="33.75" x="216.0" y="423.5625" /><text fill="black" font-family="Arial" font-size="16.875" text-anchor="end" transform="rotate(0,173.8125, 440.4375)" x="173.8125" y="440.4375">P0.03</text></g><g><text font-family="Arial" font-size="16.875" text-anchor="end" transform="rotate(0,207.5625, 476.4375)" x="207.5625" y="476.4375">6</text><rect fill="white" height="16.875" stroke="black" stroke-width="1" width="33.75" x="216.0" y="459.5625" /><text fill="black" font-family="Arial" font-size="16.875" text-anchor="end" transform="rotate(0,173.8125, 476.4375)" x="173.8125" y="476.4375">P0.04</text></g><g><text font-family="Arial" font-size="16.875" text-anchor="end" transform="rotate(0,207.5625, 512.4375)" x="207.5625" y="512.4375">7</text><rect fill="white" height="16.875" stroke="black" stroke-width="1" width="33.75" x="216.0" y="495.5625" /><text fill="black" font-family="Arial" font-size="16.875" text-anchor="end" transform="rotate(0,173.8125, 512.4375)" x="173.8125" y="512.4375">P0.05</text></g><g><text font-family="Arial" font-size="16.875" text-anchor="end" transform="rotate(0,207.5625, 548.4375)" x="207.5625" y="548.4375">8</text><rect fill="white" height="16.875" stroke="black" stroke-width="1" width="33.75" x="216.0" y="531.5625" /><text fill="black" font-family="Arial" font-size="16.875" text-anchor="end" transform="rotate(0,173.8125, 548.4375)" x="173.8125" y="548.4375">P0.06</text></g><g><text font-family="Arial" font-size="16.875" text-anchor="end" transform="rotate(0,207.5625, 584.4375)" x="207.5625" y="584.4375">9</text><rect fill="white" height="16.875" stroke="black" stroke-width="1" width="33.75" x="216.0" y="567.5625" /><text fill="black" font-family="Arial" font-size="16.875" text-anchor="end" transform="rotate(0,173.8125, 584.4375)" x="173.8125" y="584.4375">P0.07</text></g><g><text font-family="Arial" font-size="16.875" text-anchor="end" transform="rotate(0,207.5625, 620.4375)" x="207.5625" y="620.4375">10</text><rect fill="white" height="16.875" stroke="black" stroke-width="1" width="33.75" x="216.0" y="603.5625" /><text fill="black" font-family="Arial" font-size="16.875" text-anchor="end" transform="rotate(0,173.8125, 620.4375)" x="173.8125" y="620.4375">P0.08</text></g><g><text font-family="Arial" font-size="16.875" text-anchor="end" transform="rotate(0,207.5625, 656.4375)" x="207.5625" y="656.4375">11</text><rect fill="white" height="16.875" stroke="black" stroke-width="1" width="33.75" x="216.0" y="639.5625" /><text fill="black" font-family="Arial" font-size="16.875" text-anchor="end" transform="rotate(0,173.8125, 656.4375)" x="173.8125" y="656.4375">P0.09</text></g><g><text font-family="Arial" font-size="16.875" text-anchor="end" transform="rotate(0,207.5625, 692.4375)" x="207.5625" y="692.4375">12</text><rect fill="white" height="16.875" stroke="black" stroke-width="1" width="33.75" x="216.0" y="675.5625" /><text fill="black" font-family="Arial" font-size="16.875" text-anchor="end" transform="rotate(0,173.8125, 692.4375)" x="173.8125" y="692.4375">P0.10</text></g></g><g><g><text font-family="Arial" font-size="16.875" text-anchor="start" transform="rotate(0,764.4375, 296.4375)" x="764.4375" y="296.4375">36</text><rect fill="white" height="16.875" stroke="black" stroke-width="1" width="33.75" x="722.25" y="279.5625" /><text fill="red" font-family="Arial" font-size="16.875" text-anchor="start" transform="rotate(0,798.1875, 296.4375)" x="798.1875" y="296.4375">VDD</text></g><g><text font-family="Arial" font-size="16.875" text-anchor="start" transform="rotate(0,764.4375, 332.4375)" x="764.4375" y="332.4375">35</text><rect fill="white" height="16.875" stroke="black" stroke-width="1" width="33.75" x="722.25" y="315.5625" /><text fill="green" font-family="Arial" font-size="16.875" text-anchor="start" transform="rotate(0,798.1875, 332.4375)" x="798.1875" y="332.4375">XC2</text></g><g><text font-family="Arial" font-size="16.875" text-anchor="start" transform="rotate(0,764.4375, 368.4375)" x="764.4375" y="368.4375">34</text><rect fill="white" height="16.875" stroke="black" stroke-width="1" width="33.75" x="722.25" y="351.5625" /><text fill="green" font-family="Arial" font-size="16.875" text-anchor="start" transform="rotate(0,798.1875, 368.4375)" x="798.1875" y="368.4375">XC1</text></g><g><text font-family="Arial" font-size="16.875" text-anchor="start" transform="rotate(0,764.4375, 404.4375)" x="764.4375" y="404.4375">33</text><rect fill="white" height="16.875" stroke="black" stroke-width="1" width="33.75" x="722.25" y="387.5625" /><text fill="red" font-family="Arial" font-size="16.875" text-anchor="start" transform="rotate(0,798.1875, 404.4375)" x="798.1875" y="404.4375">DEC3</text></g><g><text font-family="Arial" font-size="16.875" text-anchor="start" transform="rotate(0,764.4375, 440.4375)" x="764.4375" y="440.4375">32</text><rect fill="white" height="16.875" stroke="black" stroke-width="1" width="33.75" x="722.25" y="423.5625" /><text fill="red" font-family="Arial" font-size="16.875" text-anchor="start" transform="rotate(0,798.1875, 440.4375)" x="798.1875" y="440.4375">DEC2</text></g><g><text font-family="Arial" font-size="16.875" text-anchor="start" transform="rotate(0,764.4375, 476.4375)" x="764.4375" y="476.4375">31</text><rect fill="white" height="16.875" stroke="black" stroke-width="1" width="33.75" x="722.25" y="459.5625" /><text fill="blue" font-family="Arial" font-size="16.875" text-anchor="start" transform="rotate(0,798.1875, 476.4375)" x="798.1875" y="476.4375">VSS</text></g><g><text font-family="Arial" font-size="16.875" text-anchor="start" transform="rotate(0,764.4375, 512.4375)" x="764.4375" y="512.4375">30</text><rect fill="white" height="16.875" stroke="black" stroke-width="1" width="33.75" x="722.25" y="495.5625" /><text fill="green" font-family="Arial" font-size="16.875" text-anchor="start" transform="rotate(0,798.1875, 512.4375)" x="798.1875" y="512.4375">ANT</text></g><g><text font-family="Arial" font-size="16.875" text-anchor="start" transform="rotate(0,764.4375, 548.4375)" x="764.4375" y="548.4375">29</text><rect fill="white" height="16.875" stroke="black" stroke-width="1" width="33.75" x="722.25" y="531.5625" /><text fill="black" font-family="Arial" font-size="16.875" text-anchor="start" transform="rotate(0,798.1875, 548.4375)" x="798.1875" y="548.4375">P0.24</text></g><g><text font-family="Arial" font-size="16.875" text-anchor="start" transform="rotate(0,764.4375, 584.4375)" x="764.4375" y="584.4375">28</text><rect fill="white" height="16.875" stroke="black" stroke-width="1" width="33.75" x="722.25" y="567.5625" /><text fill="black" font-family="Arial" font-size="16.875" text-anchor="start" transform="rotate(0,798.1875, 584.4375)" x="798.1875" y="584.4375">P0.23</text></g><g><text font-family="Arial" font-size="16.875" text-anchor="start" transform="rotate(0,764.4375, 620.4375)" x="764.4375" y="620.4375">27</text><rect fill="white" height="16.875" stroke="black" stroke-width="1" width="33.75" x="722.25" y="603.5625" /><text fill="black" font-family="Arial" font-size="16.875" text-anchor="start" transform="rotate(0,798.1875, 620.4375)" x="798.1875" y="620.4375">P0.22</text></g><g><text font-family="Arial" font-size="16.875" text-anchor="start" transform="rotate(0,764.4375, 656.4375)" x="764.4375" y="656.4375">26</text><rect fill="white" height="16.875" stroke="black" stroke-width="1" width="33.75" x="722.25" y="639.5625" /><text fill="black" font-family="Arial" font-size="16.875" text-anchor="start" transform="rotate(0,798.1875, 656.4375)" x="798.1875" y="656.4375">SWDIO</text></g><g><text font-family="Arial" font-size="16.875" text-anchor="start" transform="rotate(0,764.4375, 692.4375)" x="764.4375" y="692.4375">25</text><rect fill="white" height="16.875" stroke="black" stroke-width="1" width="33.75" x="722.25" y="675.5625" /><text fill="black" font-family="Arial" font-size="16.875" text-anchor="start" transform="rotate(0,798.1875, 692.4375)" x="798.1875" y="692.4375">SWDCLK</text></g></g><g><rect fill="none" height="540" stroke="black" stroke-width="3" width="540" x="216.0" y="216.0" /><text font-family="Arial" font-size="67.5" text-anchor="middle" x="486.0" y="486.0">nRF52832</text><text font-family="Arial" font-size="50.625" text-anchor="middle" x="486.0" y="553.5">QFN48_6x6</text></g></svg>